<?xml version="1.0" encoding="utf-8"?>
<!-- Generator: Adobe Illustrator 27.0.0, SVG Export Plug-In . SVG Version: 6.00 Build 0)  -->
<svg version="1.1" id="Calque_1" xmlns="http://www.w3.org/2000/svg" xmlns:xlink="http://www.w3.org/1999/xlink" x="0px" y="0px"
	 viewBox="0 0 1080 1080" style="enable-background:new 0 0 1080 1080;" xml:space="preserve">
<style type="text/css">
	.st0{fill:#004AAD;}
</style>
<path d="M697.37,428.53c-39.48-44-86.03-66.02-139.66-66.02c-64.22,0-120.22,26.15-168,78.46s-71.66,122.67-71.66,211.06
	c0,72.14,16.22,132.57,48.73,181.3C407.19,893.77,466.68,924,545.23,924c45.69,0,85.91-12.18,120.69-36.56
	c34.75-24.35,66.46-65.81,95.19-124.36l-19.27-12.47c-21.16,32.86-40.99,55.62-59.49,68.27c-18.5,12.65-39.1,18.97-61.76,18.97
	c-36.64,0-68-15.66-94.06-47.02c-33.99-40.78-52.69-96.31-56.09-166.59h290.65c-3.04-86.5-24.26-151.75-63.74-195.75L697.37,428.53z
	 M467.63,586.31v-19.83c0-58.54,11.14-104.62,33.42-138.25c12.47-19.27,28.52-28.9,48.17-28.9c13.21,0,23.79,3.4,31.74,10.2
	c13.98,11.7,24.26,28.9,30.88,51.57c6.62,22.67,9.93,64.39,9.93,125.21H467.66L467.63,586.31z"/>
<polygon class="st0" points="705.02,113.79 534.48,113.79 468.75,310.41 517.48,310.41 "/>
</svg>
