<?xml version="1.0" encoding="UTF-8"?>
<svg id="Calque_1" data-name="Calque 1" xmlns="http://www.w3.org/2000/svg" viewBox="0 0 703.23 274.16">
  <defs>
    <style>
        .cls-0 {
        fill: #004aad;
        }
      .cls-1 {
        fill: #004aad;
      }
    </style>
  </defs>
  <path class="cls-0" d="M77.07,23.97V89.53h42.56v18.98h-42.56v110.62c0,10.35,.48,17.03,1.44,20.03,.96,3.01,2.65,5.43,5.08,7.29,2.43,1.86,4.66,2.78,6.71,2.78,8.31,0,16.17-6.33,23.58-18.98l5.75,4.22c-10.35,24.54-27.16,36.81-50.42,36.81-11.38,0-20.99-3.16-28.85-9.49-7.86-6.33-12.88-13.39-15.05-21.18-1.28-4.34-1.92-16.1-1.92-35.28V108.51H0v-6.71c16.1-11.37,29.81-23.32,41.12-35.85,11.31-12.52,21.19-26.52,29.62-41.99h6.33Z"/>
  <path class="cls-0" d="M221.25,84.17c15.59,0,30.1,4.03,43.52,12.08s23.61,19.49,30.58,34.32c6.96,14.83,10.45,31.06,10.45,48.7,0,25.44-6.46,46.72-19.36,63.84-15.6,20.71-37.13,31.06-64.61,31.06s-47.74-9.46-62.31-28.37c-14.57-18.92-21.86-40.84-21.86-65.76s7.44-48.09,22.34-67.2c14.89-19.11,35.31-28.66,61.25-28.66Zm.77,13.61c-6.52,0-12.11,2.46-16.78,7.38-4.67,4.92-7.73,14.64-9.2,29.14-1.47,14.51-2.2,34.67-2.2,60.49,0,13.68,.89,26.46,2.68,38.34,1.4,9.08,4.41,15.98,9.01,20.71,4.6,4.73,9.84,7.09,15.72,7.09s10.54-1.6,14.38-4.79c4.98-4.34,8.31-10.42,9.97-18.21,2.55-12.14,3.83-36.68,3.83-73.62,0-21.73-1.22-36.65-3.64-44.77-2.43-8.11-6.01-14.03-10.74-17.73-3.33-2.68-7.67-4.03-13.04-4.03Z"/>
  <path class="cls-0" d="M405.87,8.82V179.83l41.6-40.84c8.56-8.31,13.9-14.31,16.01-18.02,2.11-3.71,3.16-7.29,3.16-10.74s-1.41-6.33-4.22-8.63c-2.81-2.3-8.31-3.96-16.49-4.98v-7.09h80.33v7.09c-7.67,.38-14.38,2.2-20.13,5.46s-17,13.07-33.74,29.43l-19.56,19.17,42.18,61.73c17,25.05,27.1,39.11,30.29,42.18,4.34,4.35,9.84,6.78,16.49,7.29v6.9h-92.6v-6.9c4.09,0,7.06-.77,8.91-2.3,1.85-1.53,2.78-3.19,2.78-4.98,0-2.94-2.68-8.37-8.05-16.3l-35.47-51.96-11.5,11.31v32.21c0,13.68,1.28,22.21,3.83,25.6,2.56,3.39,7.79,5.53,15.72,6.42v6.9h-92.6v-6.9c7.54-.77,12.91-3.19,16.1-7.29,2.17-2.81,3.26-11.05,3.26-24.73V47.74c0-13.55-1.25-21.98-3.74-25.31-2.49-3.32-7.7-5.49-15.63-6.52v-7.09h73.05Z"/>
  <path class="cls-0" d="M681.66,106.5c-13.36-14.89-29.11-22.34-47.26-22.34-21.73,0-40.68,8.85-56.85,26.55-16.17,17.7-24.25,41.51-24.25,71.42,0,24.41,5.49,44.86,16.49,61.35,13.68,20.45,33.81,30.68,60.39,30.68,15.46,0,29.07-4.12,40.84-12.37,11.76-8.24,22.49-22.27,32.21-42.08l-6.52-4.22c-7.16,11.12-13.87,18.82-20.13,23.1-6.26,4.28-13.23,6.42-20.9,6.42-12.4,0-23.01-5.3-31.83-15.91-11.5-13.8-17.83-32.59-18.98-56.37h98.35c-1.03-29.27-8.21-51.35-21.57-66.24Zm-77.74,53.39v-6.71c0-19.81,3.77-35.4,11.31-46.78,4.22-6.52,9.65-9.78,16.3-9.78,4.47,0,8.05,1.15,10.74,3.45,4.73,3.96,8.21,9.78,10.45,17.45,2.24,7.67,3.36,21.79,3.36,42.37h-52.15Z"/>
  <polygon class="cls-1" points="684.25 0 626.54 0 604.3 66.53 620.79 66.53 684.25 0"/>
</svg>